# xmcd CD database file
#
# Track frame offsets:
#	150
#	31356
#	74629
#	92918
#	132386
#	150250
#	180022
#	220053
#
# Disc length: 3206 seconds
#
# Revision: 0
# Processed by: cddbd v1.5.2PL0 Copyright (c) Steve Scherf et al.
# Submitted via: CDex 2.00
#
DISCID=640c8408
DTITLE=Fabled - Short Stories
DYEAR=2018
DGENRE=Jazz
TTITLE0=Dove Stone
TTITLE1=25 Years of Rain
TTITLE2=H.G.
TTITLE3=Little Air
TTITLE4=Old Owls
TTITLE5=The Picture House
TTITLE6=First Love, Last Rites
TTITLE7=For Richer, For Poorer
EXTD=YEAR: 2018
EXTT0=
EXTT1=
EXTT2=
EXTT3=
EXTT4=
EXTT5=
EXTT6=
EXTT7=
PLAYORDER=
